<svg viewBox="0 0 305 398" xmlns="http://www.w3.org/2000/svg" xml:space="preserve" style="fill-rule:evenodd;clip-rule:evenodd;stroke-linecap:round;stroke-linejoin:round;stroke-miterlimit:1.5"><path d="M621.371 422.998V317.605h269.63v389.953H617.647" style="fill:none;stroke:#000;stroke-width:8px" transform="translate(-590.105 -313.605)"/><path d="M13.82 118.212c-2.006 2.357-3.733 5.004-5.177 7.07-6.325 9.04-11.954 20.097-3.405 29.96 1.625 1.876 3.63 3.447 5.762 4.7 2.468 1.448 5.406 2.45 8.195 3.041 4.544.963 9.3 1.04 13.89.42 6.17-.833 12.172-2.866 17.27-6.487a20.29 20.29 0 0 0 4.958-5.098c4.26-6.347 4.194-13.138 1.613-19.477-3.466-8.51-11.755-16.153-18.969-20.07-7.542-4.096-17.453-5.903-23.623 1.74a4 4 0 0 0-.514 4.201zm20.806 1.36a3.984 3.984 0 0 1-2.995.476c-2.137-.504-4.85-1.025-6.995-.365-1.822.561-3.342 2.09-4.742 3.73-1.828 2.14-3.38 4.574-4.696 6.454-1.953 2.791-3.96 5.803-5.217 8.915-1.497 3.71-1.843 7.592 1.302 11.221 1.058 1.221 2.38 2.224 3.767 3.04 1.744 1.023 3.833 1.696 5.804 2.114 3.651.774 7.473.815 11.161.317 4.89-.659 9.668-2.21 13.708-5.08a12.071 12.071 0 0 0 2.947-3.034c3.355-4.998 2.114-10.43-.775-15.196-3.225-5.32-8.508-9.898-13.269-12.593z"/><path d="M23.636 210.367c-1.083.902-2.11 2.075-3.043 3.08-4.389 4.725-9.54 8.431-14.08 12.97-.762.762-1.315 1.868-2.026 2.58a4.001 4.001 0 0 0 5.657 5.655c.71-.71 1.264-1.817 2.026-2.578 4.61-4.61 9.83-8.385 14.285-13.184.748-.806 1.537-1.81 2.416-2.469-.108.081-.353.224-.353.224s2.101-1.303 2.636-2.372c.236-.472.451-1.137.527-1.947.092-.988-.105-2.596-.105-3.157 0-2.535.091-5.062.182-7.593.287-8.05.576-16.126.37-24.19-.112-4.339-.552-8.629-.552-12.974 0-2.208-1.792-4-4-4s-4 1.792-4 4c0 4.413.441 8.771.554 13.18.202 7.9-.086 15.811-.367 23.698-.094 2.627-.187 5.248-.187 7.88 0 .192.028.698.06 1.197z"/><path d="M26.097 216.974c1.102.826 1.902 2.143 2.887 3.128 2.693 2.692 5.754 4.666 8.898 6.762 1.17.78 2.671 2.067 4.223 2.982 1.655.976 3.39 1.557 4.995 1.557 2.208 0 4-1.792 4-4 0-2.207-1.792-4-4-4-.507 0-.967-.452-1.48-.795-1.218-.812-2.368-1.779-3.3-2.4-2.7-1.8-5.366-3.45-7.679-5.763-1.246-1.246-2.35-2.826-3.744-3.87a4 4 0 0 0-4.8 6.4zm2.163-29.801c-3.658-1.829-7.669-2.903-11.519-4.25-3.89-1.362-8.582-2.988-12.74-2.988a4 4 0 0 0 0 8c3.308 0 7.003 1.455 10.097 2.54 3.533 1.235 7.23 2.175 10.584 3.853a4.002 4.002 0 0 0 5.367-1.789 4.002 4.002 0 0 0-1.789-5.366z"/><path d="M59.14 184.572a4.001 4.001 0 0 0-.62-7.952c-.575 0-1.318.126-2.1.42-.557.21-1.2.586-1.56.706-1.704.568-3.532.76-5.27 1.214-7.175 1.871-14.77 4.341-21.408 7.66a4.001 4.001 0 0 0-1.789 5.367 4 4 0 0 0 5.366 1.788c6.153-3.076 13.2-5.34 19.85-7.074 1.91-.498 3.91-.742 5.781-1.365.356-.119 1.424-.612 1.75-.764z"/></svg>