<svg viewBox="0 0 305 398" xmlns="http://www.w3.org/2000/svg" xml:space="preserve" style="fill-rule:evenodd;clip-rule:evenodd;stroke-linecap:round;stroke-linejoin:round;stroke-miterlimit:1.5"><path d="M621.371 422.998V317.605h269.63v389.953H617.647" style="fill:none;stroke:#000;stroke-width:8px" transform="translate(-590.105 -313.605)"/><path d="M18.294 118.212c-2.006 2.357-3.733 5.004-5.177 7.07-6.325 9.04-11.954 20.097-3.405 29.96 1.625 1.876 3.63 3.447 5.762 4.7 2.468 1.448 5.406 2.45 8.195 3.041 4.544.963 9.3 1.04 13.89.42 6.17-.833 12.172-2.866 17.27-6.487a20.29 20.29 0 0 0 4.958-5.098c4.26-6.347 4.194-13.138 1.613-19.477-3.466-8.51-11.755-16.153-18.969-20.07-7.542-4.096-17.453-5.903-23.623 1.74a4.007 4.007 0 0 0-.514 4.201zm20.806 1.36a3.987 3.987 0 0 1-2.995.476c-2.137-.504-4.85-1.025-6.995-.365-1.822.561-3.342 2.09-4.742 3.73-1.828 2.14-3.38 4.574-4.696 6.454-1.953 2.791-3.96 5.803-5.217 8.915-1.497 3.71-1.843 7.592 1.302 11.221 1.058 1.221 2.38 2.224 3.767 3.04 1.744 1.023 3.833 1.696 5.804 2.114 3.651.774 7.473.815 11.161.317 4.89-.659 9.668-2.21 13.708-5.08a12.071 12.071 0 0 0 2.947-3.034c3.355-4.998 2.114-10.43-.775-15.196-3.225-5.32-8.508-9.898-13.269-12.593v.001z"/></svg>