<svg viewBox="0 0 305 398" xmlns="http://www.w3.org/2000/svg" xml:space="preserve" style="fill-rule:evenodd;clip-rule:evenodd;stroke-linecap:round;stroke-linejoin:round;stroke-miterlimit:1.5"><path d="M621.371 422.998V317.605h269.63v389.953H617.647" style="fill:none;stroke:#000;stroke-width:8px" transform="translate(-590.105 -313.605)"/><path d="M21.056 141.627c.02.018.037.036.055.054a6.002 6.002 0 0 0 8.485 0 6.002 6.002 0 0 0 0-8.485l-.054-.055a6.005 6.005 0 0 0-8.486 0 6.005 6.005 0 0 0 0 8.486zm11.096 76.042.217.131c1.03.589 2.071 1.194 2.978 1.964 2.213 1.881 3.947 4.255 6.325 5.954 1.178.841 2.4 1.558 3.663 2.26.61.339 1.221.516 1.72 1.015a4.002 4.002 0 0 0 5.657 0 4.002 4.002 0 0 0 0-5.657c-1.052-1.052-2.207-1.637-3.492-2.351-.998-.555-1.968-1.113-2.898-1.777-2.195-1.568-3.752-3.804-5.794-5.54-1.283-1.09-2.732-1.981-4.19-2.814-.9-.514-2.372-1.147-3.536-1.059a4.002 4.002 0 0 0-3.686 4.291 4.002 4.002 0 0 0 3.036 3.583z"/><path d="m14.81 234.852.462-.339c1.436-1.099 2.8-2.367 4.048-3.674 3.684-3.861 7.013-8.125 11.035-11.644a33.978 33.978 0 0 1 2.822-2.24c.222-.157.664-.483.8-.582a4.002 4.002 0 0 0 2.317-4.982 4.002 4.002 0 0 0-5.06-2.53c-.938.313-1.874.996-2.67 1.558a41.86 41.86 0 0 0-3.477 2.756c-4.202 3.676-7.705 8.107-11.555 12.141-.963 1.009-2.01 1.994-3.12 2.842-.284.217-1.368 1.027-1.812 1.572-.807.991-1.007 2.017-1.007 2.745 0 2.208 1.793 4 4 4a3.994 3.994 0 0 0 3.217-1.623zm18.66-43.996c.274-.058.826-.175 1.045-.228 1.613-.391 3.174-.772 4.768-1.251 3.736-1.12 7.416-1.945 11.256-2.604 1.844-.316 3.687-.865 5.568-.865 2.208 0 4-1.793 4-4 0-2.208-1.792-4-4-4-2.334 0-4.634.588-6.92.981-4.164.714-8.153 1.611-12.203 2.826-1.455.436-2.88.781-4.354 1.138-.537.13-1.458.288-2.179.565-.817.313-1.496.762-1.988 1.254a4.002 4.002 0 0 0 0 5.657 4.004 4.004 0 0 0 5.007.527z"/><path d="M33.691 185.318c-5.847-2.382-12.033-3.342-18.24-4.27-1.022-.152-2.047-.238-3.067-.383-.886-.127-1.855-.421-2.737-.421-2.208 0-4 1.793-4 4 0 2.208 1.792 4 4 4 .523 0 1.08.265 1.606.34 1.003.143 2.011.227 3.015.377 5.577.833 11.151 1.626 16.404 3.766a4.003 4.003 0 0 0 5.214-2.195 4.003 4.003 0 0 0-2.195-5.214z"/><path d="M26.16 163.459c.503 1.513.43 3.28.547 4.863.325 4.383.148 8.824.31 13.216.115 3.111.726 6.188.964 9.28.255 3.321-.095 6.677.101 10.003.24 4.081.523 8.119.523 12.174 0 2.208 1.793 4 4 4 2.208 0 4-1.792 4-4 0-4.211-.288-8.405-.537-12.644-.198-3.374.148-6.778-.11-10.147-.23-2.987-.835-5.957-.946-8.962-.167-4.491.005-9.03-.327-13.511-.164-2.221-.229-4.68-.936-6.802a4.003 4.003 0 0 0-5.06-2.53 4.002 4.002 0 0 0-2.53 5.06z"/><path d="M18.294 118.212c-2.006 2.357-3.733 5.004-5.177 7.07-6.325 9.04-11.954 20.097-3.405 29.96 1.625 1.876 3.63 3.447 5.762 4.7 2.468 1.448 5.406 2.45 8.195 3.041 4.544.963 9.3 1.04 13.89.42 6.17-.833 12.172-2.866 17.27-6.487a20.29 20.29 0 0 0 4.958-5.098c4.26-6.347 4.194-13.138 1.613-19.477-3.466-8.51-11.755-16.153-18.969-20.07-7.542-4.096-17.453-5.903-23.623 1.74a4.007 4.007 0 0 0-.514 4.201zm20.806 1.36a3.987 3.987 0 0 1-2.995.476c-2.137-.504-4.85-1.025-6.995-.365-1.822.561-3.342 2.09-4.742 3.73-1.828 2.14-3.38 4.574-4.696 6.454-1.953 2.791-3.96 5.803-5.217 8.915-1.497 3.71-1.843 7.592 1.302 11.221 1.058 1.221 2.38 2.224 3.767 3.04 1.744 1.023 3.833 1.696 5.804 2.114 3.651.774 7.473.815 11.161.317 4.89-.659 9.668-2.21 13.708-5.08a12.071 12.071 0 0 0 2.947-3.034c3.355-4.998 2.114-10.43-.775-15.196-3.225-5.32-8.508-9.898-13.269-12.593v.001z"/></svg>